<svg width="20" height="20" viewBox="0 0 24 24" fill="none" xmlns="http://www.w3.org/2000/svg">
  <path d="M21.2225 12.6157V6.76487H19.8089V11.9202C17.5581 11.9015 15.0553 12.4523 13.4416 14.066C13.1636 14.344 12.9208 14.6442 12.709 14.9587V13.2287C13.5354 12.4794 16.0096 9.97935 16.0096 6.90911C16.0096 3.30189 12.5937 0.481189 12.4483 0.362871L12.0022 0L11.5561 0.362918C11.4107 0.481236 7.99472 3.30193 7.99472 6.90916C7.99472 9.9794 10.4689 12.4794 11.2953 13.2288V14.9638C11.0827 14.6476 10.8388 14.3456 10.5592 14.066C8.94655 12.4532 6.44495 11.9015 4.192 11.9202V6.76487H2.7784V12.616C2.73868 13.0469 2.421 17.2625 4.89187 19.7334C6.50135 21.3428 9.00879 21.9046 11.2953 21.8787V24H12.7089V21.8788C14.9844 21.9028 17.4924 21.3498 19.1089 19.7334C21.5803 17.262 21.2622 13.0454 21.2225 12.6157Z" fill="#2E7D32"/>
</svg>
